<svg width="181" height="247" viewBox="0 0 181 247" fill="none" xmlns="http://www.w3.org/2000/svg">
<g clip-path="url(#clip0_13_1029)">
<path d="M73.75 243.47H70.78V134.72H73.75V243.47ZM103.05 232.79H100.61V134H103.05V232.79ZM44.18 246.08H40.67V127.37H44.18V246.08ZM131.18 214.94H129.28V126.11H131.18V214.94ZM157.22 190.83H155.85V111.96H157.22V190.83ZM15.25 239.68H11.21V111.01H15.25V239.68ZM180.28 161.38H179.45V92.47H180.28V161.38ZM-12 223.68H-16.58V85.05H-12V223.68ZM-37.2 206.4H-42.31V57.81H-37.2V206.4ZM-62.29 192.74H-67.94V34.19H-62.29V192.74ZM-205.67 231.1H-214V22.75H-205.67V231.09V231.1ZM-87.84 184.19H-94.02V15.68H-87.84V184.18V184.19ZM-172.75 204.21H-180.54V5.82H-172.75V204.2V204.21ZM-114.39 182.26H-121.11V3.78H-114.39V182.25V182.26ZM-142.51 188.43H-149.77V0H-142.51V188.42V188.43Z" fill="#0547FF"/>
</g>
<defs>
<clipPath id="clip0_13_1029">
<rect width="394.28" height="246.08" fill="white" transform="matrix(-1 0 0 1 180.28 0)"/>
</clipPath>
</defs>
</svg>
