<svg width="220" height="60" viewBox="0 0 220 60" fill="none" xmlns="http://www.w3.org/2000/svg">
<path d="M219.929 1.80548C219.929 1.34037 220.212 0.670284 219.646 0.449551C219.197 0.276118 218.898 0.87525 218.591 1.1827C215.963 3.79996 213.365 6.44876 210.705 9.03449C209.91 9.80706 209.635 10.619 209.643 11.7069C209.674 20.9147 209.643 30.1224 209.643 39.338C209.643 45.6131 209.69 51.8883 209.643 58.1713C209.627 59.5824 210.107 60.0002 211.476 59.945C213.712 59.8504 215.963 59.8504 218.198 59.9608C219.599 60.0317 219.984 59.543 219.976 58.1634C219.921 48.7743 219.953 39.3774 219.953 29.9884C219.953 20.5993 219.953 11.2024 219.937 1.81337M195.972 11.163C189.786 17.3514 183.647 23.5871 177.39 29.6967C174.871 32.1563 172.77 34.8603 171.164 37.9899C169.929 40.3944 168.544 42.7121 167.206 45.0613C164.64 49.5627 162.051 54.0404 159.508 58.5497C158.816 59.7795 158.918 59.9292 160.327 59.9292C163.255 59.9371 166.183 59.8741 169.11 59.945C170.228 59.9687 170.842 59.5587 171.377 58.6048C175.265 51.6991 179.2 44.8169 183.127 37.9348C187.48 30.2958 191.887 22.6805 196.176 15.0022C199.813 8.49843 195.177 0.173634 187.802 0.071151C178.602 -0.0549822 169.402 0.0553844 160.201 0.0317344C159.076 0.0317344 158.792 0.520501 158.808 1.52957C158.839 3.77631 158.808 6.02306 158.808 8.26981C158.808 10.3431 158.808 10.351 160.839 10.351C172.14 10.351 183.45 10.351 194.752 10.351C195.287 10.351 195.838 10.2249 196.531 10.5639C196.287 10.8319 196.137 11.0053 195.98 11.163M84.9605 48.53C87.416 46.0625 89.848 43.5713 92.3586 41.159C93.2322 40.3234 93.5628 39.4326 93.547 38.2422C93.4919 34.7105 93.5234 31.1788 93.5234 27.6549C93.5234 19.1252 93.5234 10.6033 93.5234 2.07352C93.5234 0.039618 93.5077 0.0317344 91.4299 0.0317344C89.4151 0.0317344 87.4003 0.0317344 85.3855 0.0396177C83.9426 0.0396177 83.2211 0.772767 83.2211 2.23907C83.2211 17.4618 83.2054 32.6845 83.2447 47.9072C83.2447 49.2079 82.8906 49.673 81.5447 49.6573C76.0985 49.5942 70.6522 49.6021 65.2059 49.6494C64.0096 49.6573 63.6082 49.2631 63.6318 48.057C63.6948 44.8957 63.6476 41.7266 63.6476 38.5654C63.6476 26.2753 63.6397 13.9931 63.6712 1.703C63.6712 0.481084 63.3327 -0.0313322 62.042 0.0159678C59.7596 0.094801 57.4615 0.0159678 55.1791 0.0317344C53.3767 0.0396177 53.3295 0.0869179 53.3295 1.8922C53.3295 8.67974 53.3295 15.4594 53.3295 22.2469C53.3295 31.2812 53.3531 40.3076 53.3216 49.3419C53.298 56.2004 58.9804 60.1736 64.0175 59.9766C70.5105 59.7243 77.0114 59.9292 83.5123 59.9135C88.4549 59.8977 92.6734 56.1847 93.3503 51.2812C93.5628 49.7676 93.4605 49.6336 91.8864 49.6257C89.3757 49.61 86.8651 49.6257 83.9767 49.6257C84.4804 49.0503 84.7086 48.7743 84.9605 48.5221M38.5962 25.2347C39.6508 25.2663 40.0601 24.8957 40.0601 23.8078C40.0286 16.3345 40.0286 8.86106 40.0601 1.38767C40.0601 0.362834 39.6587 0.00808442 38.6749 0.0238511C36.3374 0.0553844 34.0078 0.0317344 31.6703 0.0396177C29.7814 0.0396177 29.7342 0.0790346 29.7342 1.94738C29.7342 8.91624 29.7342 15.8851 29.7342 22.854C29.7342 24.7775 29.7185 24.7933 27.7351 24.8011C22.5643 24.8169 17.3935 24.8169 12.2148 24.8169C10.3574 24.8169 10.3495 24.809 10.3416 22.8776C10.3416 15.8142 10.318 8.75858 10.3574 1.69512C10.3574 0.465318 9.98748 -0.0313322 8.70461 0.00808443C6.41434 0.0869177 4.12407 0.00808442 1.84166 0.0238511C0.0550924 0.0396177 0.0157407 0.0790346 0.0157407 1.90797C0.0157407 9.52326 0.0157407 17.1307 0.0157407 24.7381C0.0157407 29.0739 2.03055 32.1405 5.78471 34.1587C6.06804 34.3084 6.35925 34.4503 6.92591 34.7341C4.88749 34.7341 3.19536 34.7657 1.50324 34.7263C0.487962 34.7026 0 35.0101 0 36.1295C0.0314814 43.6029 0.0236111 51.0763 0 58.5497C0 59.543 0.338425 59.945 1.36157 59.9292C3.73842 59.8898 6.12314 59.9292 8.49998 59.9292C10.2944 59.9292 10.3338 59.8898 10.3338 58.0688C10.3338 50.958 10.3653 43.8551 10.3102 36.7444C10.3023 35.4673 10.7273 35.0889 11.9708 35.0968C17.2361 35.152 22.5013 35.1204 27.7666 35.1362C29.7263 35.1362 29.7342 35.1598 29.7342 37.1149C29.7342 44.0838 29.7342 51.0526 29.7342 58.0215C29.7342 59.9056 29.7657 59.9214 31.6703 59.9214C33.8661 59.9214 36.0698 59.8346 38.2578 59.9371C39.6351 60.0002 40.0837 59.5824 40.0758 58.1713C40.0129 50.7925 39.9578 43.4058 40.0758 36.027C40.1624 30.9423 38.0768 27.4105 33.4018 25.219C35.1333 25.219 36.8726 25.1795 38.5962 25.2347ZM126.587 10.3589V10.3431C123.801 10.3431 121.015 10.3431 118.228 10.3431C117.662 10.3431 116.953 10.2091 117.032 11.1866C117.371 15.2544 116.662 19.3222 117.087 23.39C117.197 24.4464 117.512 24.8248 118.567 24.8169C124.092 24.7933 129.625 24.7933 135.15 24.8406C136.236 24.8484 136.574 24.4543 136.566 23.3979C136.519 19.5508 136.519 15.7117 136.566 11.8646C136.582 10.7688 136.252 10.3037 135.087 10.3352C132.253 10.3983 129.42 10.3589 126.587 10.3589ZM146.074 35.2781C145.657 35.1835 145.523 35.1283 145.397 35.1283C136.393 35.1283 127.382 35.1441 118.37 35.1283C117.26 35.1283 117.174 35.7117 117.095 36.6025C116.772 40.4022 117.142 44.1941 117.095 47.9939C117.079 49.271 117.552 49.6573 118.787 49.6494C123.864 49.6021 128.94 49.6336 134.016 49.6336C136.834 49.6336 136.629 49.7834 136.519 47.1346C136.448 45.487 136.952 44.3045 138.156 43.1772C140.816 40.6782 143.343 38.0294 146.082 35.2939M137.534 24.809C139.951 25.2347 141.784 25.96 143.351 27.3317C145.578 29.2868 146.774 31.7542 146.821 34.6868C146.9 39.8662 146.916 45.0455 146.845 50.2249C146.766 55.4909 142.233 59.9056 137.015 59.9135C127.5 59.9292 117.984 59.8977 108.461 59.9608C107.06 59.9687 106.651 59.5114 106.651 58.1555C106.691 42.3415 106.691 26.5355 106.698 10.7215C106.698 7.69433 106.714 4.67501 106.659 1.64782C106.635 0.488967 107.013 0.0238511 108.241 0.0317344C117.756 0.0632677 127.271 0.00808443 136.795 0.0553844C142.351 0.0790344 146.814 4.60406 146.877 10.1382C146.9 12.6608 146.845 15.1835 146.9 17.6983C146.924 18.6916 146.562 19.3065 145.712 19.811C143.083 21.3719 140.494 23.0037 137.55 24.8169" fill="white"/>
</svg>
