<svg width="142" height="300" viewBox="0 0 142 300" fill="none" xmlns="http://www.w3.org/2000/svg">
<g opacity="0.5" clip-path="url(#clip0_11_344)">
<path d="M26.1954 297.056L139.068 184.256L25.8185 71.093L-87.0539 183.893L26.1954 297.056ZM141.651 185.121L27.0611 299.637C26.5864 300.112 25.8185 300.112 25.3437 299.637L-89.637 184.744C-90.1117 184.27 -90.1117 183.502 -89.637 183.028L24.9528 68.5116C25.4275 68.0372 26.1954 68.0372 26.6702 68.5116L141.637 183.405C142.112 183.879 142.112 184.646 141.637 185.121" fill="#EF4123"/>
<path d="M26.6702 70.2282C26.4468 70.4515 26.1536 70.577 25.8045 70.577C25.1343 70.577 24.5898 70.0328 24.5898 69.3631V4.15842L-87.5566 116.233V183.879C-87.5566 184.549 -88.1011 185.093 -88.7853 185.093C-89.4694 185.093 -90 184.549 -90 183.879V115.731C-90 115.41 -89.8743 115.103 -89.637 114.865L24.9528 0.363074C25.3019 0.0142364 25.8185 -0.0834381 26.2793 0.0979573C26.7261 0.293306 27.0193 0.725864 27.0193 1.22819V69.377C27.0193 69.7119 26.8796 70.0189 26.6702 70.2421" fill="#EF4123"/>
<path d="M141.637 185.121C141.414 185.344 141.106 185.47 140.771 185.47C140.101 185.47 139.543 184.926 139.543 184.256V119.037L27.3963 231.126V298.772C27.3963 299.442 26.8517 299.986 26.1815 299.986C25.5113 299.986 24.9668 299.442 24.9668 298.772V230.623C24.9668 230.302 25.0925 229.995 25.3159 229.758L139.92 115.242C140.269 114.893 140.799 114.795 141.246 114.977C141.707 115.158 142 115.605 142 116.107V184.256C142 184.591 141.86 184.898 141.637 185.121Z" fill="#EF4123"/>
<path d="M141.637 185.121C141.414 185.344 141.106 185.47 140.771 185.47C140.101 185.47 139.543 184.926 139.543 184.256V116.609L24.9528 2.07917C24.4781 1.60475 24.4781 0.837313 24.9528 0.362894C25.4276 -0.111525 26.1955 -0.111525 26.6702 0.362894L141.637 115.256C141.86 115.479 142 115.786 142 116.121V184.27C142 184.605 141.86 184.912 141.637 185.135" fill="#EF4123"/>
<path d="M27.0472 231.488C26.5724 231.963 25.8045 231.963 25.3298 231.488L-89.637 116.595C-90.1117 116.121 -90.1117 115.353 -89.637 114.865C-89.1623 114.391 -88.3943 114.391 -87.9196 114.865L27.0472 229.758C27.5219 230.233 27.5219 231 27.0472 231.474" fill="#EF4123"/>
</g>
<defs>
<clipPath id="clip0_11_344">
<rect width="232" height="300" fill="white" transform="translate(-90)"/>
</clipPath>
</defs>
</svg>
