<svg width="353" height="339" viewBox="0 0 353 339" fill="none" xmlns="http://www.w3.org/2000/svg">
<path d="M2.46443 168.289L175.272 168.322L175.255 167.12C174.61 123.461 156.499 82.3574 124.238 51.3801C91.9776 20.3946 49.1727 3.00253 3.71318 2.38879L2.46443 2.3722V168.289ZM177.736 168.322L178.985 168.306C224.445 167.692 267.241 150.292 299.502 119.306C331.763 88.3289 349.874 47.225 350.519 3.5748L350.536 2.3722H177.769L177.736 168.322ZM174.023 170.703C128.564 171.317 85.767 188.717 53.5061 219.694C21.2453 250.671 3.12602 291.775 2.48097 335.434L2.46443 336.636H175.272V170.686L174.023 170.703ZM177.753 171.889C178.398 215.547 196.509 256.643 228.77 287.629C261.031 318.606 303.827 336.006 349.287 336.62L350.536 336.636V170.686H177.728L177.745 171.889H177.753ZM351.768 339.008C311.394 339.008 273.361 326.211 241.803 301.993C211.171 278.489 189.273 245.529 180.168 209.186L177.736 209.46V339H0V337.814C0 299.032 13.3311 262.507 38.5542 232.201C63.0331 202.783 97.3613 181.758 135.213 173.017L134.923 170.678L0 170.653V0.000176106H1.23221C41.6141 0.000176106 79.6472 12.8058 111.213 37.0236C141.853 60.5365 163.744 93.496 172.849 129.848L175.28 129.566L175.305 -0.00811768H353V1.1696C353 39.9513 339.669 76.4688 314.454 106.774C289.983 136.192 255.663 157.217 217.82 165.967L218.11 168.306H353V338.992H351.768V339.008Z" fill="#FBED24"/>
</svg>
