<?xml version="1.0" standalone="no"?>
<!DOCTYPE svg PUBLIC "-//W3C//DTD SVG 20010904//EN"
 "http://www.w3.org/TR/2001/REC-SVG-20010904/DTD/svg10.dtd">
<svg version="1.0" xmlns="http://www.w3.org/2000/svg"
 width="706.000000pt" height="706.000000pt" viewBox="0 0 706.000000 706.000000"
 preserveAspectRatio="xMidYMid meet">
<metadata>
Created by potrace 1.14, written by Peter Selinger 2001-2017
</metadata>
<g transform="translate(0.000000,706.000000) scale(0.100000,-0.100000)"
fill="#000000" stroke="none">
<path d="M0 5214 l0 -1709 1348 0 1347 0 3 -22 c3 -18 -4 -24 -35 -32 -167
-46 -260 -73 -273 -78 -8 -3 -19 -7 -25 -8 -5 -2 -66 -24 -135 -50 -163 -61
-420 -187 -557 -271 -109 -67 -244 -154 -253 -164 -3 -3 -41 -32 -85 -65 -161
-120 -408 -352 -536 -505 -30 -35 -62 -73 -71 -83 -33 -38 -178 -244 -239
-342 -79 -126 -202 -368 -256 -505 -62 -157 -133 -384 -149 -480 -3 -14 -9
-38 -14 -55 -13 -44 -44 -246 -56 -360 -2 -16 -6 -101 -10 -188 l-6 -157 1778
0 1779 0 0 1291 c0 849 3 1293 10 1298 27 19 38 1 70 -109 89 -307 239 -632
414 -894 25 -38 51 -76 56 -85 6 -9 12 -18 15 -21 3 -3 32 -41 65 -85 32 -44
64 -85 69 -91 6 -6 29 -33 51 -60 55 -68 317 -330 390 -390 33 -27 62 -52 65
-55 3 -3 50 -40 105 -81 362 -271 738 -456 1195 -589 84 -24 80 -23 135 -33
22 -4 54 -12 70 -17 17 -5 46 -11 65 -14 19 -2 49 -7 65 -10 60 -10 96 -16
128 -20 17 -2 52 -7 77 -10 90 -12 108 -14 283 -21 l177 -7 0 1709 0 1709
-1347 0 -1348 0 -3 22 c-2 14 3 23 15 27 10 3 68 19 128 35 61 16 162 48 225
71 63 23 120 42 125 44 57 16 379 170 455 216 8 5 51 31 95 57 147 87 284 185
445 317 96 79 356 336 415 411 22 28 42 52 45 55 28 27 250 333 250 345 0 3
15 28 33 57 86 135 212 398 272 568 64 181 127 419 150 570 4 25 9 54 11 65 4
22 13 95 20 160 2 22 7 109 10 193 l6 152 -1778 -2 -1779 -3 -1 -1280 c-1
-704 -2 -1287 -3 -1296 -2 -23 -45 -17 -49 7 -2 10 -13 48 -24 84 -11 36 -21
72 -23 80 -7 33 -79 221 -127 334 -62 141 -166 334 -245 454 -32 48 -62 94
-68 103 -22 35 -71 105 -80 115 -5 7 -53 64 -105 128 -134 163 -362 386 -518
506 -18 14 -45 35 -60 48 -26 21 -145 105 -180 127 -10 6 -44 27 -76 49 -164
106 -395 222 -601 301 -100 39 -288 102 -325 110 -8 2 -44 11 -80 20 -36 9
-72 18 -80 20 -8 2 -33 8 -55 14 -22 6 -56 13 -75 15 -19 3 -44 7 -55 9 -57
12 -220 35 -315 43 -25 3 -116 7 -202 11 l-158 5 0 -1708z m6918 1656 l93 0
-5 -107 c-6 -138 -15 -234 -27 -303 -5 -30 -11 -75 -14 -100 -6 -49 -49 -244
-66 -300 -10 -34 -15 -52 -23 -87 -3 -10 -21 -65 -41 -123 -170 -486 -431
-899 -799 -1265 -83 -82 -171 -166 -195 -185 -24 -19 -53 -43 -65 -54 -187
-163 -548 -381 -838 -505 -295 -127 -635 -219 -941 -256 -23 -3 -58 -7 -77
-10 -139 -18 -358 -24 -363 -11 -2 6 -3 751 -2 1656 l0 1645 190 5 c105 3 840
4 1635 3 795 -2 1487 -3 1538 -3z m-6553 -14 c17 -2 57 -7 90 -10 291 -33 612
-114 900 -228 391 -154 769 -393 1083 -683 129 -119 334 -343 381 -415 8 -14
21 -31 28 -38 25 -26 141 -198 201 -298 117 -194 240 -468 307 -684 90 -285
145 -619 149 -900 l0 -45 -1724 0 -1725 0 -3 1659 -2 1659 142 -7 c79 -3 157
-8 173 -10z m3140 -5001 c1 -908 0 -1654 -2 -1660 -2 -8 -2616 -12 -3396 -5
l-58 0 6 123 c3 67 8 138 10 157 9 88 16 147 22 175 3 17 7 41 9 55 13 91 52
263 90 390 33 112 116 334 126 338 4 2 8 11 8 19 0 18 131 283 161 324 10 15
19 30 19 33 0 20 219 335 286 413 11 11 39 46 64 76 76 93 329 339 430 417 24
19 53 43 64 52 38 34 233 167 338 232 298 183 736 360 1038 420 14 3 57 12 95
20 39 8 88 17 110 21 23 3 50 7 61 9 23 5 111 16 159 22 17 1 73 6 125 9 52 3
95 7 96 8 1 1 33 2 71 2 l68 0 0 -1650z m3493 1646 c9 -1 12 -339 12 -1656 l0
-1655 -32 -1 c-18 -1 -35 -1 -38 -1 -151 8 -236 14 -262 17 -18 2 -54 6 -80 9
-81 10 -195 28 -258 41 -14 3 -36 8 -50 10 -47 7 -262 65 -359 96 -157 50
-296 107 -466 189 -134 66 -357 190 -375 210 -3 3 -32 23 -65 44 -164 107
-387 295 -539 455 -28 29 -66 69 -84 88 -83 87 -290 360 -348 460 -11 17 -39
65 -62 105 -152 256 -308 655 -362 927 -5 25 -11 56 -14 67 -2 12 -7 37 -10
55 -3 19 -7 43 -10 54 -2 11 -7 45 -10 75 -4 30 -9 70 -11 88 -10 79 -24 320
-18 325 2 2 3419 1 3441 -2z"/>
</g>
</svg>
